<?xml version="1.0" standalone="no"?>
<!DOCTYPE svg PUBLIC "-//W3C//DTD SVG 20010904//EN"
 "http://www.w3.org/TR/2001/REC-SVG-20010904/DTD/svg10.dtd">
<svg version="1.0" xmlns="http://www.w3.org/2000/svg"
 width="51.000000pt" height="201.000000pt" viewBox="0 0 51.000000 201.000000"
 preserveAspectRatio="xMidYMid meet">
<metadata>
Created by potrace 1.16, written by Peter Selinger 2001-2019
</metadata>
<g transform="translate(0.000000,201.000000) scale(0.100000,-0.100000)"
fill="#000000" stroke="none">
<path d="M330 1994 c-53 -23 -98 -72 -121 -133 -19 -49 -23 -88 -30 -306 -9
-265 -18 -331 -49 -383 -23 -37 -75 -72 -107 -72 -22 0 -23 -3 -23 -95 0 -93
0 -95 24 -95 37 0 89 -41 114 -92 26 -53 41 -199 42 -413 0 -198 22 -286 87
-347 43 -41 94 -58 173 -58 l70 0 0 84 0 83 -56 6 c-97 10 -114 42 -114 219
-1 186 -16 372 -36 436 -14 45 -31 70 -79 118 l-60 61 38 27 c50 36 93 115
111 201 9 41 17 160 21 289 7 249 13 278 69 301 20 8 51 15 71 15 l35 0 0 85
0 85 -72 0 c-42 -1 -88 -7 -108 -16z"/>
</g>
</svg>
