<?xml version="1.0" standalone="no"?>
<!DOCTYPE svg PUBLIC "-//W3C//DTD SVG 20010904//EN"
 "http://www.w3.org/TR/2001/REC-SVG-20010904/DTD/svg10.dtd">
<svg version="1.0" xmlns="http://www.w3.org/2000/svg"
 width="51.000000pt" height="201.000000pt" viewBox="0 0 51.000000 201.000000"
 preserveAspectRatio="xMidYMid meet">
<metadata>
Created by potrace 1.16, written by Peter Selinger 2001-2019
</metadata>
<g transform="translate(0.000000,201.000000) scale(0.100000,-0.100000)"
fill="#000000" stroke="none">
<path d="M0 1926 l0 -83 56 -6 c97 -10 114 -42 114 -219 1 -186 16 -372 36
-436 14 -45 31 -70 79 -118 l60 -61 -38 -27 c-50 -36 -93 -115 -111 -201 -9
-41 -17 -160 -21 -289 -7 -249 -13 -278 -69 -301 -20 -8 -51 -15 -71 -15 l-35
0 0 -85 0 -85 70 0 c119 0 192 47 231 149 19 49 23 88 30 306 9 265 18 331 49
383 23 37 75 72 108 72 21 0 22 3 22 95 0 93 0 95 -24 95 -37 0 -89 41 -114
92 -26 53 -41 199 -42 413 0 198 -22 286 -87 347 -43 41 -94 58 -173 58 l-70
0 0 -84z"/>
</g>
</svg>
