<?xml version="1.0" standalone="no"?>
<!DOCTYPE svg PUBLIC "-//W3C//DTD SVG 20010904//EN"
 "http://www.w3.org/TR/2001/REC-SVG-20010904/DTD/svg10.dtd">
<svg version="1.0" xmlns="http://www.w3.org/2000/svg"
 width="1426.000000pt" height="1440.000000pt" viewBox="0 0 1426.000000 1440.000000"
 preserveAspectRatio="xMidYMid meet">
<metadata>
Created by potrace 1.16, written by Peter Selinger 2001-2019
</metadata>
<g transform="translate(0.000000,1440.000000) scale(0.100000,-0.100000)"
fill="#000000" stroke="none">
<path d="M7010 14134 c-97 -83 -182 -168 -271 -270 l-80 -91 -82 -7 c-700 -58
-1387 -217 -2004 -466 l-143 -58 0 122 c0 66 5 203 11 304 6 101 8 186 5 189
-4 5 -1811 -556 -2334 -724 l-52 -17 -20 -65 c-32 -105 -78 -344 -96 -501 -30
-264 -10 -772 41 -1040 6 -34 1 -41 -106 -170 -786 -941 -1306 -2089 -1493
-3300 -61 -394 -71 -536 -71 -1050 0 -514 10 -656 71 -1050 187 -1211 705
-2356 1493 -3300 1061 -1272 2543 -2112 4171 -2364 394 -61 536 -71 1050 -71
514 0 656 10 1050 71 2359 365 4356 1952 5255 4175 241 596 388 1202 462 1904
26 246 26 1024 0 1270 -94 897 -313 1659 -696 2424 l-71 140 118 69 c166 98
332 188 515 278 86 43 157 82 157 86 0 4 -428 372 -950 817 -688 587 -957 811
-975 811 -35 0 -238 -54 -334 -89 l-83 -30 -132 108 c-496 408 -1071 758
-1631 996 -60 25 -113 50 -118 54 -7 7 69 121 181 269 30 41 51 77 46 81 -10
9 -2766 551 -2799 551 -11 0 -49 -26 -85 -56z m-759 -1040 c-239 -525 -375
-1142 -422 -1911 -15 -254 -6 -1027 15 -1298 107 -1335 404 -2775 901 -4355
211 -672 509 -1488 690 -1892 31 -67 51 -118 46 -113 -5 6 -74 105 -154 220
-713 1034 -1318 2182 -1776 3373 -592 1539 -963 3202 -1085 4867 -23 314 -39
686 -30 695 12 12 244 112 384 167 407 158 859 281 1275 347 177 28 209 32
212 31 2 -1 -24 -59 -56 -131z m3306 -320 c347 -148 696 -336 1007 -541 147
-97 469 -333 481 -353 3 -5 -38 -39 -92 -76 -222 -155 -506 -418 -717 -664
-879 -1026 -1638 -2746 -2181 -4945 -220 -891 -413 -1926 -476 -2555 l-13
-125 -13 75 c-50 291 -111 781 -138 1110 -33 412 -39 582 -39 1065 -1 488 7
683 40 1085 165 2009 800 4010 1841 5803 63 108 116 197 119 197 2 0 84 -34
181 -76z m-7348 -2151 c474 -1423 1545 -3133 3105 -4953 633 -739 1433 -1578
1976 -2073 230 -209 300 -257 300 -207 0 44 205 586 343 905 847 1967 2204
3707 3936 5049 247 191 740 545 784 561 9 4 40 -50 105 -182 297 -611 490
-1259 577 -1935 63 -490 62 -1102 -1 -1598 -67 -531 -217 -1096 -421 -1590
-82 -199 -278 -595 -383 -775 -547 -933 -1332 -1718 -2265 -2265 -180 -105
-576 -301 -775 -383 -615 -254 -1283 -410 -1960 -457 -201 -14 -662 -14 -860
0 -675 47 -1342 203 -1955 454 -188 78 -607 285 -780 386 -1688 990 -2820
2698 -3070 4632 -62 482 -62 1114 0 1596 110 853 397 1683 836 2417 136 229
423 645 435 632 2 -2 35 -98 73 -214z"/>
</g>
</svg>
